<svg width="34" height="32" viewBox="0 0 34 32" fill="none" xmlns="http://www.w3.org/2000/svg">
<path d="M28.6668 0.333252H5.3335C2.57683 0.333252 0.333496 2.57659 0.333496 5.33325V10.0516C0.333496 11.8066 0.970163 13.4016 2.00016 14.6283V30.3333C2.00016 30.7753 2.17576 31.1992 2.48832 31.5118C2.80088 31.8243 3.2248 31.9999 3.66683 31.9999H17.0002C17.4422 31.9999 17.8661 31.8243 18.1787 31.5118C18.4912 31.1992 18.6668 30.7753 18.6668 30.3333V21.9999H25.3335V30.3333C25.3335 30.7753 25.5091 31.1992 25.8216 31.5118C26.1342 31.8243 26.5581 31.9999 27.0002 31.9999H30.3335C30.7755 31.9999 31.1994 31.8243 31.512 31.5118C31.8246 31.1992 32.0002 30.7753 32.0002 30.3333V14.6266C33.0302 13.4016 33.6668 11.8066 33.6668 10.0499V5.33325C33.6668 2.57659 31.4235 0.333252 28.6668 0.333252ZM30.3335 5.33325V10.0516C30.3335 11.9516 28.9185 13.5716 27.1818 13.6633L27.0002 13.6666C25.1618 13.6666 23.6668 12.1716 23.6668 10.3333V3.66659H28.6668C29.5868 3.66659 30.3335 4.41492 30.3335 5.33325ZM13.6668 10.3333V3.66659H20.3335V10.3333C20.3335 12.1716 18.8385 13.6666 17.0002 13.6666C15.1618 13.6666 13.6668 12.1716 13.6668 10.3333ZM3.66683 5.33325C3.66683 4.41492 4.4135 3.66659 5.3335 3.66659H10.3335V10.3333C10.3335 12.1716 8.8385 13.6666 7.00016 13.6666L6.8185 13.6616C5.08183 13.5716 3.66683 11.9516 3.66683 10.0516V5.33325ZM13.6668 23.6666H7.00016V18.6666H13.6668V23.6666Z" fill="url(#paint0_linear_610_7087)"/>
<defs>
<linearGradient id="paint0_linear_610_7087" x1="17.0002" y1="0.333252" x2="17.0002" y2="31.9999" gradientUnits="userSpaceOnUse">
<stop stop-color="#EA9769"/>
<stop offset="1" stop-color="#EA6969"/>
</linearGradient>
</defs>
</svg>
